<mxfile host="app.diagrams.net" agent="Mozilla/5.0 (X11; Ubuntu; Linux x86_64; rv:134.0) Gecko/20100101 Firefox/134.0" version="26.0.8">
  <diagram name="Page-1" id="JdePj9OhShe80ReRBMyp">
    <mxGraphModel dx="1618" dy="1136" grid="1" gridSize="10" guides="1" tooltips="1" connect="1" arrows="1" fold="1" page="1" pageScale="1" pageWidth="850" pageHeight="1100" math="0" shadow="0">
      <root>
        <mxCell id="0" />
        <mxCell id="1" parent="0" />
        <mxCell id="UI_zcst581lrBf1IYATD-3" style="edgeStyle=orthogonalEdgeStyle;rounded=0;orthogonalLoop=1;jettySize=auto;html=1;" edge="1" parent="1" source="UI_zcst581lrBf1IYATD-2">
          <mxGeometry relative="1" as="geometry">
            <mxPoint x="340" y="200" as="targetPoint" />
          </mxGeometry>
        </mxCell>
        <mxCell id="UI_zcst581lrBf1IYATD-2" value="" style="ellipse;whiteSpace=wrap;html=1;aspect=fixed;" vertex="1" parent="1">
          <mxGeometry x="330" y="90" width="20" height="20" as="geometry" />
        </mxCell>
        <mxCell id="UI_zcst581lrBf1IYATD-5" style="edgeStyle=orthogonalEdgeStyle;rounded=0;orthogonalLoop=1;jettySize=auto;html=1;" edge="1" parent="1" source="UI_zcst581lrBf1IYATD-4" target="UI_zcst581lrBf1IYATD-6">
          <mxGeometry relative="1" as="geometry">
            <mxPoint x="340" y="280" as="targetPoint" />
          </mxGeometry>
        </mxCell>
        <mxCell id="UI_zcst581lrBf1IYATD-4" value="init_complete" style="rounded=1;whiteSpace=wrap;html=1;" vertex="1" parent="1">
          <mxGeometry x="280" y="200" width="120" height="40" as="geometry" />
        </mxCell>
        <mxCell id="UI_zcst581lrBf1IYATD-7" style="edgeStyle=orthogonalEdgeStyle;rounded=0;orthogonalLoop=1;jettySize=auto;html=1;" edge="1" parent="1" source="UI_zcst581lrBf1IYATD-6" target="UI_zcst581lrBf1IYATD-9">
          <mxGeometry relative="1" as="geometry">
            <mxPoint x="340" y="370" as="targetPoint" />
          </mxGeometry>
        </mxCell>
        <mxCell id="UI_zcst581lrBf1IYATD-8" style="edgeStyle=orthogonalEdgeStyle;rounded=0;orthogonalLoop=1;jettySize=auto;html=1;entryX=0.5;entryY=0;entryDx=0;entryDy=0;" edge="1" parent="1" source="UI_zcst581lrBf1IYATD-6" target="UI_zcst581lrBf1IYATD-10">
          <mxGeometry relative="1" as="geometry">
            <mxPoint x="600" y="295" as="targetPoint" />
          </mxGeometry>
        </mxCell>
        <mxCell id="UI_zcst581lrBf1IYATD-6" value="fork" style="rounded=1;whiteSpace=wrap;html=1;" vertex="1" parent="1">
          <mxGeometry x="305" y="280" width="70" height="30" as="geometry" />
        </mxCell>
        <mxCell id="UI_zcst581lrBf1IYATD-13" style="edgeStyle=orthogonalEdgeStyle;rounded=0;orthogonalLoop=1;jettySize=auto;html=1;" edge="1" parent="1" source="UI_zcst581lrBf1IYATD-9">
          <mxGeometry relative="1" as="geometry">
            <mxPoint x="340" y="430" as="targetPoint" />
          </mxGeometry>
        </mxCell>
        <mxCell id="UI_zcst581lrBf1IYATD-9" value="parent" style="rounded=1;whiteSpace=wrap;html=1;" vertex="1" parent="1">
          <mxGeometry x="295" y="360" width="90" height="30" as="geometry" />
        </mxCell>
        <mxCell id="UI_zcst581lrBf1IYATD-11" style="edgeStyle=orthogonalEdgeStyle;rounded=0;orthogonalLoop=1;jettySize=auto;html=1;dashed=1;entryX=0.5;entryY=0;entryDx=0;entryDy=0;" edge="1" parent="1" source="UI_zcst581lrBf1IYATD-10" target="UI_zcst581lrBf1IYATD-12">
          <mxGeometry relative="1" as="geometry">
            <mxPoint x="905.04" y="440" as="targetPoint" />
          </mxGeometry>
        </mxCell>
        <mxCell id="UI_zcst581lrBf1IYATD-10" value="child" style="rounded=1;whiteSpace=wrap;html=1;" vertex="1" parent="1">
          <mxGeometry x="870.04" y="360" width="70" height="30" as="geometry" />
        </mxCell>
        <mxCell id="UI_zcst581lrBf1IYATD-12" value="msgrcv" style="rounded=1;whiteSpace=wrap;html=1;" vertex="1" parent="1">
          <mxGeometry x="860.04" y="570" width="90" height="30" as="geometry" />
        </mxCell>
        <mxCell id="UI_zcst581lrBf1IYATD-26" style="edgeStyle=orthogonalEdgeStyle;rounded=0;orthogonalLoop=1;jettySize=auto;html=1;entryX=0.5;entryY=0;entryDx=0;entryDy=0;" edge="1" parent="1" source="UI_zcst581lrBf1IYATD-14" target="UI_zcst581lrBf1IYATD-25">
          <mxGeometry relative="1" as="geometry" />
        </mxCell>
        <mxCell id="UI_zcst581lrBf1IYATD-14" value="reserve_sem(1)" style="rounded=1;whiteSpace=wrap;html=1;" vertex="1" parent="1">
          <mxGeometry x="295" y="430" width="90" height="30" as="geometry" />
        </mxCell>
        <mxCell id="UI_zcst581lrBf1IYATD-17" style="edgeStyle=orthogonalEdgeStyle;rounded=0;orthogonalLoop=1;jettySize=auto;html=1;entryX=0;entryY=0.5;entryDx=0;entryDy=0;dashed=1;" edge="1" parent="1" source="UI_zcst581lrBf1IYATD-16" target="UI_zcst581lrBf1IYATD-12">
          <mxGeometry relative="1" as="geometry" />
        </mxCell>
        <mxCell id="UI_zcst581lrBf1IYATD-29" style="edgeStyle=orthogonalEdgeStyle;rounded=0;orthogonalLoop=1;jettySize=auto;html=1;entryX=0.5;entryY=0;entryDx=0;entryDy=0;exitX=0.5;exitY=1;exitDx=0;exitDy=0;" edge="1" parent="1" source="UI_zcst581lrBf1IYATD-16" target="UI_zcst581lrBf1IYATD-18">
          <mxGeometry relative="1" as="geometry">
            <mxPoint x="445" y="660" as="sourcePoint" />
            <Array as="points">
              <mxPoint x="445" y="670" />
              <mxPoint x="340" y="670" />
            </Array>
          </mxGeometry>
        </mxCell>
        <mxCell id="UI_zcst581lrBf1IYATD-16" value="msgsnd" style="rounded=1;whiteSpace=wrap;html=1;" vertex="1" parent="1">
          <mxGeometry x="400" y="570" width="90" height="30" as="geometry" />
        </mxCell>
        <mxCell id="UI_zcst581lrBf1IYATD-21" style="edgeStyle=orthogonalEdgeStyle;rounded=0;orthogonalLoop=1;jettySize=auto;html=1;" edge="1" parent="1" source="UI_zcst581lrBf1IYATD-18" target="UI_zcst581lrBf1IYATD-20">
          <mxGeometry relative="1" as="geometry" />
        </mxCell>
        <mxCell id="UI_zcst581lrBf1IYATD-18" value="reserve_sem(3)" style="rounded=1;whiteSpace=wrap;html=1;" vertex="1" parent="1">
          <mxGeometry x="295" y="710" width="90" height="30" as="geometry" />
        </mxCell>
        <mxCell id="UI_zcst581lrBf1IYATD-22" style="edgeStyle=orthogonalEdgeStyle;rounded=0;orthogonalLoop=1;jettySize=auto;html=1;" edge="1" parent="1" source="UI_zcst581lrBf1IYATD-20" target="UI_zcst581lrBf1IYATD-23">
          <mxGeometry relative="1" as="geometry">
            <mxPoint x="340" y="1060" as="targetPoint" />
          </mxGeometry>
        </mxCell>
        <mxCell id="UI_zcst581lrBf1IYATD-20" value="msgsnd" style="rounded=1;whiteSpace=wrap;html=1;" vertex="1" parent="1">
          <mxGeometry x="295" y="980" width="90" height="30" as="geometry" />
        </mxCell>
        <mxCell id="UI_zcst581lrBf1IYATD-34" style="edgeStyle=orthogonalEdgeStyle;rounded=0;orthogonalLoop=1;jettySize=auto;html=1;" edge="1" parent="1" source="UI_zcst581lrBf1IYATD-23" target="UI_zcst581lrBf1IYATD-33">
          <mxGeometry relative="1" as="geometry" />
        </mxCell>
        <mxCell id="UI_zcst581lrBf1IYATD-44" style="edgeStyle=orthogonalEdgeStyle;rounded=0;orthogonalLoop=1;jettySize=auto;html=1;exitX=0.5;exitY=1;exitDx=0;exitDy=0;" edge="1" parent="1" source="UI_zcst581lrBf1IYATD-23">
          <mxGeometry relative="1" as="geometry">
            <mxPoint x="340" y="1220" as="targetPoint" />
          </mxGeometry>
        </mxCell>
        <mxCell id="UI_zcst581lrBf1IYATD-23" value="timeout || explodeThreshold" style="rhombus;whiteSpace=wrap;html=1;" vertex="1" parent="1">
          <mxGeometry x="270" y="1060" width="140" height="80" as="geometry" />
        </mxCell>
        <mxCell id="UI_zcst581lrBf1IYATD-27" style="edgeStyle=orthogonalEdgeStyle;rounded=0;orthogonalLoop=1;jettySize=auto;html=1;exitX=1;exitY=0.5;exitDx=0;exitDy=0;entryX=0.5;entryY=0;entryDx=0;entryDy=0;" edge="1" parent="1" source="UI_zcst581lrBf1IYATD-25" target="UI_zcst581lrBf1IYATD-16">
          <mxGeometry relative="1" as="geometry">
            <mxPoint x="440" y="510" as="targetPoint" />
          </mxGeometry>
        </mxCell>
        <mxCell id="UI_zcst581lrBf1IYATD-28" style="edgeStyle=orthogonalEdgeStyle;rounded=0;orthogonalLoop=1;jettySize=auto;html=1;entryX=0;entryY=0.5;entryDx=0;entryDy=0;" edge="1" parent="1" source="UI_zcst581lrBf1IYATD-25" target="UI_zcst581lrBf1IYATD-16">
          <mxGeometry relative="1" as="geometry">
            <Array as="points">
              <mxPoint x="340" y="585" />
            </Array>
          </mxGeometry>
        </mxCell>
        <mxCell id="UI_zcst581lrBf1IYATD-25" value="d &amp;gt; 0" style="rhombus;whiteSpace=wrap;html=1;" vertex="1" parent="1">
          <mxGeometry x="300" y="490" width="80" height="40" as="geometry" />
        </mxCell>
        <mxCell id="UI_zcst581lrBf1IYATD-30" value="rec (recover)" style="text;html=1;align=center;verticalAlign=middle;resizable=0;points=[];autosize=1;strokeColor=none;fillColor=none;" vertex="1" parent="1">
          <mxGeometry x="366" y="478" width="90" height="30" as="geometry" />
        </mxCell>
        <mxCell id="UI_zcst581lrBf1IYATD-31" value="sod (start of day)" style="text;html=1;align=center;verticalAlign=middle;resizable=0;points=[];autosize=1;strokeColor=none;fillColor=none;" vertex="1" parent="1">
          <mxGeometry x="230" y="550" width="110" height="30" as="geometry" />
        </mxCell>
        <mxCell id="UI_zcst581lrBf1IYATD-36" style="edgeStyle=orthogonalEdgeStyle;rounded=0;orthogonalLoop=1;jettySize=auto;html=1;" edge="1" parent="1" source="UI_zcst581lrBf1IYATD-33">
          <mxGeometry relative="1" as="geometry">
            <mxPoint x="565" y="1180" as="targetPoint" />
          </mxGeometry>
        </mxCell>
        <mxCell id="UI_zcst581lrBf1IYATD-33" value="msgsnd" style="rounded=1;whiteSpace=wrap;html=1;" vertex="1" parent="1">
          <mxGeometry x="520" y="1085" width="90" height="30" as="geometry" />
        </mxCell>
        <mxCell id="UI_zcst581lrBf1IYATD-35" value="eos (end of sim)" style="text;html=1;align=center;verticalAlign=middle;resizable=0;points=[];autosize=1;strokeColor=none;fillColor=none;" vertex="1" parent="1">
          <mxGeometry x="410" y="1070" width="110" height="30" as="geometry" />
        </mxCell>
        <mxCell id="UI_zcst581lrBf1IYATD-38" style="edgeStyle=orthogonalEdgeStyle;rounded=0;orthogonalLoop=1;jettySize=auto;html=1;" edge="1" parent="1" source="UI_zcst581lrBf1IYATD-37">
          <mxGeometry relative="1" as="geometry">
            <mxPoint x="565" y="1360" as="targetPoint" />
          </mxGeometry>
        </mxCell>
        <mxCell id="UI_zcst581lrBf1IYATD-37" value="release_sem(4)" style="rounded=1;whiteSpace=wrap;html=1;" vertex="1" parent="1">
          <mxGeometry x="520" y="1250" width="90" height="30" as="geometry" />
        </mxCell>
        <mxCell id="UI_zcst581lrBf1IYATD-40" style="edgeStyle=orthogonalEdgeStyle;rounded=0;orthogonalLoop=1;jettySize=auto;html=1;exitX=0.5;exitY=1;exitDx=0;exitDy=0;entryX=0.5;entryY=0;entryDx=0;entryDy=0;" edge="1" parent="1" source="UI_zcst581lrBf1IYATD-39" target="UI_zcst581lrBf1IYATD-37">
          <mxGeometry relative="1" as="geometry" />
        </mxCell>
        <mxCell id="UI_zcst581lrBf1IYATD-39" value="wait" style="rounded=1;whiteSpace=wrap;html=1;" vertex="1" parent="1">
          <mxGeometry x="520" y="1180" width="90" height="30" as="geometry" />
        </mxCell>
        <mxCell id="UI_zcst581lrBf1IYATD-42" style="edgeStyle=orthogonalEdgeStyle;rounded=0;orthogonalLoop=1;jettySize=auto;html=1;" edge="1" parent="1" source="UI_zcst581lrBf1IYATD-41" target="UI_zcst581lrBf1IYATD-43">
          <mxGeometry relative="1" as="geometry">
            <mxPoint x="565" y="1480" as="targetPoint" />
          </mxGeometry>
        </mxCell>
        <mxCell id="UI_zcst581lrBf1IYATD-41" value="delete ipc_resources" style="rounded=1;whiteSpace=wrap;html=1;" vertex="1" parent="1">
          <mxGeometry x="520" y="1360" width="90" height="30" as="geometry" />
        </mxCell>
        <mxCell id="UI_zcst581lrBf1IYATD-43" value="exit" style="ellipse;whiteSpace=wrap;html=1;aspect=fixed;" vertex="1" parent="1">
          <mxGeometry x="550" y="1440" width="30" height="30" as="geometry" />
        </mxCell>
        <mxCell id="UI_zcst581lrBf1IYATD-46" style="edgeStyle=orthogonalEdgeStyle;rounded=0;orthogonalLoop=1;jettySize=auto;html=1;entryX=0;entryY=0.5;entryDx=0;entryDy=0;" edge="1" parent="1" source="UI_zcst581lrBf1IYATD-45" target="UI_zcst581lrBf1IYATD-14">
          <mxGeometry relative="1" as="geometry">
            <mxPoint x="160" y="440" as="targetPoint" />
            <Array as="points">
              <mxPoint x="340" y="1280" />
              <mxPoint x="160" y="1280" />
              <mxPoint x="160" y="445" />
            </Array>
          </mxGeometry>
        </mxCell>
        <mxCell id="UI_zcst581lrBf1IYATD-45" value="release_sem(4)" style="rounded=1;whiteSpace=wrap;html=1;" vertex="1" parent="1">
          <mxGeometry x="295" y="1220" width="90" height="30" as="geometry" />
        </mxCell>
        <mxCell id="UI_zcst581lrBf1IYATD-49" value="" style="edgeStyle=orthogonalEdgeStyle;rounded=0;orthogonalLoop=1;jettySize=auto;html=1;" edge="1" parent="1" source="UI_zcst581lrBf1IYATD-12" target="UI_zcst581lrBf1IYATD-48">
          <mxGeometry relative="1" as="geometry">
            <mxPoint x="905.04" y="680" as="targetPoint" />
            <mxPoint x="905.04" y="600" as="sourcePoint" />
          </mxGeometry>
        </mxCell>
        <mxCell id="UI_zcst581lrBf1IYATD-50" style="edgeStyle=orthogonalEdgeStyle;rounded=0;orthogonalLoop=1;jettySize=auto;html=1;" edge="1" parent="1" source="UI_zcst581lrBf1IYATD-48" target="UI_zcst581lrBf1IYATD-51">
          <mxGeometry relative="1" as="geometry">
            <mxPoint x="1040.04" y="660" as="targetPoint" />
          </mxGeometry>
        </mxCell>
        <mxCell id="UI_zcst581lrBf1IYATD-52" style="edgeStyle=orthogonalEdgeStyle;rounded=0;orthogonalLoop=1;jettySize=auto;html=1;" edge="1" parent="1">
          <mxGeometry relative="1" as="geometry">
            <mxPoint x="905.04" y="720" as="targetPoint" />
            <mxPoint x="980.04" y="660" as="sourcePoint" />
          </mxGeometry>
        </mxCell>
        <mxCell id="UI_zcst581lrBf1IYATD-48" value="eos" style="rhombus;whiteSpace=wrap;html=1;" vertex="1" parent="1">
          <mxGeometry x="865.04" y="640" width="80" height="40" as="geometry" />
        </mxCell>
        <mxCell id="UI_zcst581lrBf1IYATD-51" value="exit" style="ellipse;whiteSpace=wrap;html=1;aspect=fixed;" vertex="1" parent="1">
          <mxGeometry x="1040.04" y="640" width="40" height="40" as="geometry" />
        </mxCell>
        <mxCell id="UI_zcst581lrBf1IYATD-56" style="edgeStyle=orthogonalEdgeStyle;rounded=0;orthogonalLoop=1;jettySize=auto;html=1;exitX=0;exitY=0.5;exitDx=0;exitDy=0;entryX=0;entryY=0.5;entryDx=0;entryDy=0;" edge="1" parent="1" source="UI_zcst581lrBf1IYATD-54" target="UI_zcst581lrBf1IYATD-12">
          <mxGeometry relative="1" as="geometry">
            <mxPoint x="790.04" y="600" as="targetPoint" />
            <Array as="points">
              <mxPoint x="800.04" y="740" />
              <mxPoint x="800.04" y="585" />
            </Array>
          </mxGeometry>
        </mxCell>
        <mxCell id="UI_zcst581lrBf1IYATD-60" style="edgeStyle=orthogonalEdgeStyle;rounded=0;orthogonalLoop=1;jettySize=auto;html=1;exitX=0.5;exitY=1;exitDx=0;exitDy=0;entryX=0.5;entryY=0;entryDx=0;entryDy=0;" edge="1" parent="1" source="UI_zcst581lrBf1IYATD-54" target="UI_zcst581lrBf1IYATD-58">
          <mxGeometry relative="1" as="geometry" />
        </mxCell>
        <mxCell id="UI_zcst581lrBf1IYATD-54" value="eod" style="rhombus;whiteSpace=wrap;html=1;" vertex="1" parent="1">
          <mxGeometry x="865.04" y="720" width="80" height="40" as="geometry" />
        </mxCell>
        <mxCell id="UI_zcst581lrBf1IYATD-61" style="edgeStyle=orthogonalEdgeStyle;rounded=0;orthogonalLoop=1;jettySize=auto;html=1;exitX=0;exitY=0.5;exitDx=0;exitDy=0;entryX=0;entryY=0.5;entryDx=0;entryDy=0;" edge="1" parent="1" source="UI_zcst581lrBf1IYATD-58" target="UI_zcst581lrBf1IYATD-12">
          <mxGeometry relative="1" as="geometry">
            <mxPoint x="800.04" y="730" as="targetPoint" />
            <Array as="points">
              <mxPoint x="800.04" y="820" />
              <mxPoint x="800.04" y="585" />
            </Array>
          </mxGeometry>
        </mxCell>
        <mxCell id="UI_zcst581lrBf1IYATD-62" style="edgeStyle=orthogonalEdgeStyle;rounded=0;orthogonalLoop=1;jettySize=auto;html=1;" edge="1" parent="1" source="UI_zcst581lrBf1IYATD-58" target="UI_zcst581lrBf1IYATD-63">
          <mxGeometry relative="1" as="geometry">
            <mxPoint x="905.04" y="880" as="targetPoint" />
          </mxGeometry>
        </mxCell>
        <mxCell id="UI_zcst581lrBf1IYATD-58" value="rec" style="rhombus;whiteSpace=wrap;html=1;" vertex="1" parent="1">
          <mxGeometry x="865.04" y="800" width="80" height="40" as="geometry" />
        </mxCell>
        <mxCell id="UI_zcst581lrBf1IYATD-67" style="edgeStyle=orthogonalEdgeStyle;rounded=0;orthogonalLoop=1;jettySize=auto;html=1;entryX=0.5;entryY=0;entryDx=0;entryDy=0;" edge="1" parent="1" source="UI_zcst581lrBf1IYATD-63" target="UI_zcst581lrBf1IYATD-65">
          <mxGeometry relative="1" as="geometry" />
        </mxCell>
        <mxCell id="UI_zcst581lrBf1IYATD-63" value="&lt;div&gt;sportelloFound = false&lt;/div&gt;&lt;div&gt;sportelloTaken = false&lt;/div&gt;&lt;div&gt;intdex=&amp;nbsp; 0&lt;/div&gt;&lt;div&gt;i = 0&lt;br&gt;&lt;/div&gt;" style="rounded=1;whiteSpace=wrap;html=1;dashed=1;" vertex="1" parent="1">
          <mxGeometry x="830.04" y="890" width="150" height="60" as="geometry" />
        </mxCell>
        <mxCell id="UI_zcst581lrBf1IYATD-68" style="edgeStyle=orthogonalEdgeStyle;rounded=0;orthogonalLoop=1;jettySize=auto;html=1;exitX=1;exitY=0.5;exitDx=0;exitDy=0;" edge="1" parent="1" source="UI_zcst581lrBf1IYATD-65">
          <mxGeometry relative="1" as="geometry">
            <mxPoint x="905.04" y="970" as="targetPoint" />
            <Array as="points">
              <mxPoint x="1040.04" y="1030" />
              <mxPoint x="1040.04" y="970" />
            </Array>
          </mxGeometry>
        </mxCell>
        <mxCell id="UI_zcst581lrBf1IYATD-74" style="edgeStyle=orthogonalEdgeStyle;rounded=0;orthogonalLoop=1;jettySize=auto;html=1;exitX=0.5;exitY=1;exitDx=0;exitDy=0;entryX=0.5;entryY=0;entryDx=0;entryDy=0;" edge="1" parent="1" source="UI_zcst581lrBf1IYATD-65" target="UI_zcst581lrBf1IYATD-73">
          <mxGeometry relative="1" as="geometry" />
        </mxCell>
        <mxCell id="UI_zcst581lrBf1IYATD-65" value="&lt;div align=&quot;center&quot;&gt;&lt;font style=&quot;font-size: 10px;&quot;&gt;sPtr[i].serviceName != role&lt;/font&gt;&lt;/div&gt;" style="rhombus;whiteSpace=wrap;html=1;align=center;" vertex="1" parent="1">
          <mxGeometry x="827.54" y="990" width="155" height="80" as="geometry" />
        </mxCell>
        <mxCell id="UI_zcst581lrBf1IYATD-69" value="i++" style="text;html=1;align=center;verticalAlign=middle;resizable=0;points=[];autosize=1;strokeColor=none;fillColor=none;" vertex="1" parent="1">
          <mxGeometry x="991.04" y="998" width="40" height="30" as="geometry" />
        </mxCell>
        <mxCell id="UI_zcst581lrBf1IYATD-77" style="edgeStyle=orthogonalEdgeStyle;rounded=0;orthogonalLoop=1;jettySize=auto;html=1;" edge="1" parent="1" source="UI_zcst581lrBf1IYATD-71" target="UI_zcst581lrBf1IYATD-78">
          <mxGeometry relative="1" as="geometry">
            <mxPoint x="1080.04" y="1280" as="targetPoint" />
          </mxGeometry>
        </mxCell>
        <mxCell id="UI_zcst581lrBf1IYATD-83" style="edgeStyle=orthogonalEdgeStyle;rounded=0;orthogonalLoop=1;jettySize=auto;html=1;entryX=0.5;entryY=0;entryDx=0;entryDy=0;" edge="1" parent="1" source="UI_zcst581lrBf1IYATD-71" target="UI_zcst581lrBf1IYATD-81">
          <mxGeometry relative="1" as="geometry" />
        </mxCell>
        <mxCell id="UI_zcst581lrBf1IYATD-71" value="&lt;div align=&quot;center&quot;&gt;&lt;font style=&quot;font-size: 10px;&quot;&gt;sPtr[i].deskAvailable&lt;br&gt;&lt;/font&gt;&lt;/div&gt;" style="rhombus;whiteSpace=wrap;html=1;align=center;" vertex="1" parent="1">
          <mxGeometry x="827.54" y="1180" width="155" height="80" as="geometry" />
        </mxCell>
        <mxCell id="UI_zcst581lrBf1IYATD-75" style="edgeStyle=orthogonalEdgeStyle;rounded=0;orthogonalLoop=1;jettySize=auto;html=1;" edge="1" parent="1" source="UI_zcst581lrBf1IYATD-73" target="UI_zcst581lrBf1IYATD-71">
          <mxGeometry relative="1" as="geometry" />
        </mxCell>
        <mxCell id="UI_zcst581lrBf1IYATD-73" value="sportelloFound = true" style="rounded=1;whiteSpace=wrap;html=1;dashed=1;" vertex="1" parent="1">
          <mxGeometry x="845.04" y="1100" width="120" height="40" as="geometry" />
        </mxCell>
        <mxCell id="UI_zcst581lrBf1IYATD-84" style="edgeStyle=orthogonalEdgeStyle;rounded=0;orthogonalLoop=1;jettySize=auto;html=1;entryX=1;entryY=0.5;entryDx=0;entryDy=0;" edge="1" parent="1" source="UI_zcst581lrBf1IYATD-78" target="UI_zcst581lrBf1IYATD-81">
          <mxGeometry relative="1" as="geometry">
            <Array as="points">
              <mxPoint x="1080.04" y="1405" />
            </Array>
          </mxGeometry>
        </mxCell>
        <mxCell id="UI_zcst581lrBf1IYATD-78" value="arrange sportello" style="rounded=1;whiteSpace=wrap;html=1;dashed=1;" vertex="1" parent="1">
          <mxGeometry x="1020.04" y="1270" width="120" height="30" as="geometry" />
        </mxCell>
        <mxCell id="UI_zcst581lrBf1IYATD-81" value="&lt;div&gt;deskSemId = sPtr[i].deskSemId&lt;/div&gt;&lt;div&gt;deskSemun = sPtr[i].deskSemun&lt;br&gt;&lt;/div&gt;" style="rounded=1;whiteSpace=wrap;html=1;dashed=1;" vertex="1" parent="1">
          <mxGeometry x="845.04" y="1370" width="120" height="70" as="geometry" />
        </mxCell>
      </root>
    </mxGraphModel>
  </diagram>
</mxfile>
